<?xml version="1.0" encoding="UTF-8"?>
<svg id="Layer_1" data-name="Layer 1" xmlns="http://www.w3.org/2000/svg" viewBox="55 400 860 170">
  <defs>
    <style>
      .cls-1, .cls-2 {
        stroke-width: 0px;
      }

      .cls-2 {
        fill: #ff394a;
      }
    </style>
  </defs>
  <path class="cls-2" d="M195.97,497.81c2.69-4.59,9.38-4.59,12.05,0l28.63,48.91c2.69,4.59-.68,10.3-6.04,10.3h-57.25c-5.36,0-8.7-5.71-6.04-10.3l28.63-48.91h.03Z"/>
  <path class="cls-2" d="M178.68,465.25c2.6-4.56,2.6-10.18,0-14.77l-23.48-40.94c-2.63-4.59-9.21-4.59-11.84,0l-78.57,137.15c-2.63,4.59.65,10.33,5.92,10.33h46.92c5.24,0,10.07-2.81,12.67-7.37l48.34-84.4h.03Z"/>
  <path class="cls-1" d="M341.06,545.59v11.43h-6.81c-8.14,0-11.19-3.52-11.31-9.5-4.14,6.07-10.6,10.21-20.31,10.21-13.5,0-22.88-6.69-22.88-18.24,0-12.91,9.12-19.95,26.41-19.95h15.45v-3.76c0-6.93-4.97-11.19-13.5-11.19-7.67,0-12.76,3.64-13.74,9.12h-13.03c1.45-12.05,11.66-19.72,27.38-19.72s25.9,7.9,25.9,22.62v24.93c0,3.17,1.1,4.03,3.88,4.03h2.55v.03ZM321.61,529.28h-16.05c-8.02,0-12.52,3.05-12.52,9.35,0,5.24,4.38,8.88,11.43,8.88,10.72,0,17.14-6.45,17.14-15.81v-2.43Z"/>
  <path class="cls-1" d="M369.65,557.02l-23.59-62.29h14.12l17.76,48.17,17.64-48.17h13.86l-23.71,62.29h-16.07Z"/>
  <path class="cls-1" d="M476.53,545.59v11.43h-6.81c-8.14,0-11.19-3.52-11.31-9.5-4.15,6.07-10.6,10.21-20.31,10.21-13.5,0-22.88-6.69-22.88-18.24,0-12.91,9.12-19.95,26.41-19.95h15.45v-3.76c0-6.93-4.97-11.19-13.5-11.19-7.67,0-12.76,3.64-13.74,9.12h-13.03c1.45-12.05,11.66-19.72,27.38-19.72s25.9,7.9,25.9,22.62v24.93c0,3.17,1.09,4.03,3.88,4.03h2.54v.03ZM457.05,529.28h-16.04c-8.02,0-12.52,3.05-12.52,9.35,0,5.24,4.38,8.88,11.43,8.88,10.72,0,17.14-6.45,17.14-15.81v-2.43Z"/>
  <path class="cls-1" d="M536.68,545.48v11.55h-50.59v-11.55h18.8v-61.22l-18.8,6.22v-11.6l16.07-6.16h15.87v72.8h18.68l-.03-.03Z"/>
  <path class="cls-1" d="M606.75,545.59v11.43h-6.81c-8.14,0-11.19-3.52-11.31-9.5-4.15,6.07-10.6,10.21-20.31,10.21-13.5,0-22.88-6.69-22.88-18.24,0-12.91,9.12-19.95,26.41-19.95h15.46v-3.76c0-6.93-4.97-11.19-13.5-11.19-7.67,0-12.76,3.64-13.73,9.12h-13.03c1.45-12.05,11.66-19.72,27.38-19.72s25.9,7.9,25.9,22.62v24.93c0,3.17,1.1,4.03,3.88,4.03h2.54v.03ZM587.31,529.28h-16.05c-8.02,0-12.52,3.05-12.52,9.35,0,5.24,4.38,8.88,11.43,8.88,10.72,0,17.14-6.45,17.14-15.81v-2.43Z"/>
  <path class="cls-1" d="M677.1,521.49v35.52h-13.26v-34.31c0-11.07-4.74-17.14-14.12-17.14-9.86,0-15.81,7.16-15.81,19.21v32.24h-13.14v-62.29h11.43l1.45,8.14c3.76-4.85,9.62-8.88,19.09-8.88,13.26,0,24.33,7.16,24.33,27.5h.03Z"/>
  <path class="cls-1" d="M693.23,525.99c0-19.21,12.29-32,31.02-32,15.93,0,25.9,8.88,28.33,23h-13.74c-1.72-7.31-6.93-11.81-14.83-11.81-10.45,0-17.41,8.64-17.41,20.81s6.93,20.54,17.41,20.54c7.78,0,13.14-4.62,14.71-11.81h13.86c-2.31,14.12-12.91,23-28.72,23-18.74,0-30.67-12.29-30.67-31.74h.03Z"/>
  <path class="cls-1" d="M825.31,521.49v35.52h-13.26v-34.43c0-10.72-4.74-17.02-14.47-17.02s-16.05,7.31-16.05,19.09v32.36h-13.14v-85.14h13.14v30.79c4.26-5.36,10.72-8.64,19.09-8.64,14.6,0,24.69,8.64,24.69,27.5v-.03Z"/>
  <path class="cls-1" d="M854.59,528.93v.62c.36,10.57,6.93,17.53,17.14,17.53,7.79,0,13.74-4.03,15.45-10.95h13.15c-2.19,12.29-12.52,21.64-27.86,21.64-19.45,0-31.62-12.64-31.62-31.74s12.17-32,30.29-32,29.93,11.43,30.28,29.69c0,1.33-.12,3.4-.35,5.24h-46.48v-.03ZM855.07,519.07h32.71c-1.09-9.24-7.43-14.48-16.55-14.48-8.14,0-15.22,5.6-16.19,14.48h.03Z"/>
</svg>